<?xml version="1.0" encoding="UTF-8"?>
<svg xmlns="http://www.w3.org/2000/svg" xmlns:xlink="http://www.w3.org/1999/xlink" width="244px" height="122px" viewBox="0 0 244 122" version="1.1">
<g id="surface1">
<path style=" stroke:none;fill-rule:evenodd;fill:rgb(100%,98.823529%,98.823529%);fill-opacity:1;" d="M 29.785156 11.519531 C 29.28125 11.800781 28.578125 12.441406 28.222656 12.945312 C 27.527344 13.941406 19.925781 26.851562 19.925781 27.042969 C 19.925781 27.105469 17.183594 31.871094 13.828125 37.628906 C 10.472656 43.390625 7.726562 48.152344 7.726562 48.214844 C 7.726562 48.277344 6.902344 49.71875 5.898438 51.421875 C 3.929688 54.746094 3.824219 55.144531 4.519531 56.667969 C 5.339844 58.46875 6.144531 58.558594 20.929688 58.558594 C 28.617188 58.558594 35.195312 58.671875 35.546875 58.804688 C 35.898438 58.941406 37.128906 60.683594 38.28125 62.679688 C 39.429688 64.675781 40.527344 66.402344 40.710938 66.519531 C 40.898438 66.632812 41.164062 66.214844 41.300781 65.589844 C 41.441406 64.96875 41.710938 63.90625 41.90625 63.238281 C 42.101562 62.566406 42.921875 59.453125 43.726562 56.324219 C 46.652344 44.933594 49.609375 33.480469 50.394531 30.511719 C 51.226562 27.351562 51.945312 26.433594 53.582031 26.433594 C 56.050781 26.433594 56.304688 27.074219 57.53125 36.398438 C 57.886719 39.082031 58.355469 42.464844 58.578125 43.921875 C 58.800781 45.375 59.621094 51.320312 60.402344 57.136719 C 61.183594 62.953125 61.992188 68.898438 62.203125 70.351562 C 62.410156 71.808594 62.796875 74.503906 63.058594 76.34375 C 63.535156 79.679688 63.988281 80.324219 64.351562 78.1875 C 64.453125 77.570312 65.40625 73.769531 66.460938 69.742188 C 67.519531 65.71875 69.089844 59.679688 69.949219 56.324219 C 72.113281 47.882812 72.410156 47.101562 73.707031 46.375 C 75.605469 45.316406 76.640625 46.292969 80.375 52.675781 L 83.695312 58.355469 L 96.890625 58.464844 C 109.730469 58.566406 110.113281 58.546875 111.160156 57.722656 C 111.96875 57.089844 112.238281 56.507812 112.238281 55.425781 C 112.238281 53.859375 112.003906 53.410156 102.253906 36.601562 C 99.074219 31.121094 95.996094 25.777344 95.410156 24.730469 C 91.441406 17.605469 88.832031 13.445312 87.625 12.300781 L 86.226562 10.980469 L 58.464844 10.996094 C 36.984375 11.003906 30.496094 11.125 29.785156 11.519531 M 153.074219 40.835938 C 150.519531 41.949219 149.070312 45.1875 150.058594 47.574219 C 150.730469 49.195312 151.191406 49.519531 154.625 50.789062 C 157.375 51.804688 157.582031 51.964844 157.582031 53.070312 C 157.582031 54.058594 157.363281 54.324219 156.28125 54.632812 C 155.230469 54.933594 154.695312 54.835938 153.46875 54.113281 L 151.957031 53.21875 L 150.53125 54.644531 C 149.363281 55.8125 149.195312 56.179688 149.601562 56.667969 C 151.160156 58.546875 156.332031 59.195312 158.976562 57.847656 C 161.097656 56.765625 162.058594 55.195312 162.058594 52.804688 C 162.058594 51.023438 161.890625 50.621094 160.75 49.601562 C 160.03125 48.957031 158.660156 48.226562 157.699219 47.972656 C 154.089844 47.019531 152.996094 45.300781 155.375 44.316406 C 156.4375 43.875 156.839844 43.902344 158.070312 44.484375 C 158.863281 44.863281 159.535156 45.121094 159.566406 45.050781 C 159.59375 44.984375 160.242188 44.25 161.007812 43.417969 L 162.398438 41.910156 L 160.601562 41.09375 C 158.503906 40.140625 154.949219 40.023438 153.074219 40.835938 M 52.363281 43.382812 C 52.191406 44.378906 49.835938 53.585938 45.59375 69.878906 C 44.929688 72.414062 44.074219 74.839844 43.6875 75.265625 C 42.882812 76.15625 41.132812 76.289062 40.171875 75.539062 C 39.816406 75.257812 38.035156 72.515625 36.21875 69.4375 L 32.910156 63.847656 L 5.753906 63.847656 L 4.910156 64.917969 C 3.394531 66.84375 2.425781 64.839844 17.277344 90.484375 C 19.996094 95.179688 23.5625 101.363281 25.199219 104.226562 C 26.839844 107.085938 28.636719 109.785156 29.191406 110.222656 C 30.171875 110.996094 31.027344 111.019531 58.355469 111.019531 C 85.578125 111.019531 86.542969 110.992188 87.511719 110.234375 C 88.0625 109.800781 89.859375 107.101562 91.503906 104.234375 C 101.234375 87.285156 111.210938 70.039062 111.6875 69.347656 C 112.503906 68.160156 112.394531 65.332031 111.496094 64.519531 C 110.835938 63.921875 109.191406 63.847656 96.550781 63.839844 C 86.027344 63.835938 82.085938 63.703125 81.332031 63.328125 C 80.753906 63.039062 79.359375 61.21875 78.085938 59.082031 C 76.785156 56.90625 75.742188 55.550781 75.589844 55.835938 C 75.441406 56.105469 74.832031 58.246094 74.234375 60.59375 C 73.632812 62.941406 72.527344 67.242188 71.777344 70.148438 C 71.027344 73.058594 69.660156 78.363281 68.738281 81.941406 C 65.332031 95.171875 65.480469 94.726562 64.226562 95.375 C 62.886719 96.070312 61.292969 95.652344 60.640625 94.4375 C 60.21875 93.648438 59.730469 90.890625 58.96875 84.992188 C 58.722656 83.09375 58.355469 80.4375 58.15625 79.097656 C 57.953125 77.753906 57.507812 74.550781 57.160156 71.980469 C 56.816406 69.40625 56.175781 64.742188 55.734375 61.609375 C 55.296875 58.480469 54.539062 52.988281 54.054688 49.410156 C 53.15625 42.832031 52.722656 41.285156 52.363281 43.382812 M 167.230469 46.605469 C 165.042969 47.722656 164.089844 49.433594 164.089844 52.257812 C 164.089844 55.148438 165.074219 56.847656 167.390625 57.945312 C 169.144531 58.777344 172.996094 58.65625 174.328125 57.722656 L 175.175781 57.128906 L 174.027344 55.75 C 172.929688 54.4375 172.824219 54.398438 171.609375 54.902344 C 170.484375 55.367188 170.21875 55.335938 169.25 54.609375 C 167.703125 53.457031 167.703125 51.058594 169.25 49.902344 C 170.210938 49.183594 170.492188 49.148438 171.582031 49.601562 C 172.746094 50.082031 172.898438 50.035156 173.996094 48.863281 C 175.144531 47.632812 175.152344 47.597656 174.382812 46.902344 C 173.261719 45.886719 168.988281 45.710938 167.230469 46.605469 M 178.15625 46.785156 L 176.359375 47.601562 L 178.585938 49.921875 L 180.128906 49.074219 C 181.605469 48.265625 181.71875 48.257812 182.742188 48.929688 C 184.410156 50.023438 184.128906 50.832031 182.085938 50.835938 C 177.980469 50.839844 175.902344 52.230469 175.902344 54.976562 C 175.902344 56.273438 176.144531 56.820312 177.074219 57.621094 C 178.109375 58.511719 178.503906 58.601562 180.519531 58.398438 C 181.773438 58.273438 183.960938 58.179688 185.382812 58.191406 L 187.972656 58.210938 L 187.792969 53.808594 C 187.597656 48.953125 187.085938 47.414062 185.382812 46.53125 C 183.769531 45.699219 180.28125 45.820312 178.15625 46.785156 M 189.507812 52.054688 L 189.507812 58.152344 L 193.574219 58.152344 L 193.574219 54.148438 C 193.574219 50.789062 193.691406 50.039062 194.316406 49.472656 C 195.246094 48.632812 195.78125 48.625 196.59375 49.4375 C 197.089844 49.933594 197.234375 50.988281 197.234375 54.117188 L 197.234375 58.152344 L 201.367188 58.152344 L 201.230469 53.035156 C 201.097656 48 201.078125 47.898438 199.957031 46.933594 C 198.59375 45.761719 195.507812 45.578125 194.070312 46.585938 C 193.253906 47.160156 193.167969 47.160156 193.167969 46.585938 C 193.167969 46.105469 192.722656 45.953125 191.335938 45.953125 L 189.507812 45.953125 L 189.507812 52.054688 M 180.96875 53.390625 C 179.566406 54.101562 179.453125 55.191406 180.71875 55.765625 C 182.089844 56.390625 183.8125 55.335938 183.8125 53.875 C 183.8125 52.714844 182.683594 52.523438 180.96875 53.390625 M 143.148438 78.488281 L 143.148438 87.839844 L 147.214844 87.839844 L 147.214844 69.132812 L 143.148438 69.132812 L 143.148438 78.488281 M 192.351562 78.488281 L 192.351562 87.839844 L 196.421875 87.839844 L 196.421875 84.003906 C 196.421875 80.097656 196.851562 78.894531 198.25 78.894531 C 199.648438 78.894531 200.078125 80.097656 200.078125 84.003906 L 200.078125 87.839844 L 204.214844 87.839844 L 204.078125 82.71875 C 203.945312 77.6875 203.925781 77.585938 202.800781 76.621094 C 201.449219 75.457031 198.734375 75.285156 197.324219 76.273438 L 196.421875 76.90625 L 196.421875 69.132812 L 192.351562 69.132812 L 192.351562 78.488281 M 179.949219 70.71875 C 176.652344 72.246094 174.859375 75.234375 174.875 79.183594 C 174.894531 84.605469 178.570312 88.246094 184.015625 88.246094 C 187.128906 88.246094 190.746094 86.621094 190.71875 85.234375 C 190.714844 84.992188 189.988281 84.28125 189.105469 83.65625 C 187.523438 82.535156 187.496094 82.53125 186.71875 83.308594 C 184.648438 85.375 181.023438 84.476562 179.703125 81.566406 C 179.289062 80.65625 178.953125 79.542969 178.953125 79.097656 C 178.953125 78.648438 179.289062 77.539062 179.703125 76.625 C 180.980469 73.816406 184.636719 72.792969 186.703125 74.664062 C 187.355469 75.25 187.53125 75.191406 188.929688 73.910156 C 190.6875 72.300781 190.570312 71.832031 188.136719 70.726562 C 185.921875 69.722656 182.109375 69.71875 179.949219 70.71875 M 220.140625 71.011719 C 219.515625 71.964844 219.507812 72.183594 220.046875 73.144531 C 220.511719 73.976562 220.960938 74.214844 222.039062 74.214844 C 223.121094 74.214844 223.566406 73.976562 224.035156 73.144531 C 224.574219 72.183594 224.5625 71.964844 223.9375 71.011719 C 223.445312 70.261719 222.886719 69.945312 222.039062 69.945312 C 221.191406 69.945312 220.632812 70.261719 220.140625 71.011719 M 113.867188 79.097656 L 113.867188 87.839844 L 117.933594 87.839844 L 117.933594 80.925781 L 120.589844 80.925781 C 125.253906 80.925781 127.285156 79.320312 127.285156 75.640625 C 127.285156 71.523438 125.363281 70.351562 118.582031 70.351562 L 113.867188 70.351562 L 113.867188 79.097656 M 117.933594 75.640625 L 117.933594 77.777344 L 120.035156 77.574219 C 121.925781 77.394531 123.21875 76.609375 123.21875 75.640625 C 123.21875 74.671875 121.925781 73.886719 120.035156 73.707031 L 117.933594 73.503906 L 117.933594 75.640625 M 128.914062 80.335938 C 128.914062 85.304688 129.367188 86.996094 130.925781 87.828125 C 132.066406 88.4375 134.464844 88.339844 135.847656 87.625 C 136.535156 87.269531 137.046875 87.183594 137.046875 87.421875 C 137.046875 87.652344 137.871094 87.839844 138.875 87.839844 L 140.707031 87.839844 L 140.707031 75.640625 L 136.640625 75.640625 L 136.640625 79.644531 C 136.640625 83.007812 136.519531 83.753906 135.894531 84.320312 C 134.96875 85.160156 134.433594 85.167969 133.617188 84.355469 C 133.125 83.859375 132.980469 82.804688 132.980469 79.679688 L 132.980469 75.640625 L 128.914062 75.640625 L 128.914062 80.335938 M 151.1875 76.273438 C 147.941406 78.035156 148.800781 82.507812 152.519531 83.214844 C 155.1875 83.722656 156.160156 84.679688 154.53125 85.199219 C 154.082031 85.339844 153.132812 85.167969 152.421875 84.8125 C 151.171875 84.1875 151.097656 84.203125 149.988281 85.265625 C 149.355469 85.871094 148.839844 86.492188 148.839844 86.648438 C 148.839844 87.320312 151.78125 88.246094 153.902344 88.246094 C 157.589844 88.246094 159.414062 86.902344 159.414062 84.1875 C 159.414062 82.453125 157.992188 81.15625 155.425781 80.539062 C 154.097656 80.21875 153.3125 79.816406 153.3125 79.449219 C 153.3125 78.519531 154.449219 78.339844 155.59375 79.089844 C 156.621094 79.761719 156.683594 79.75 157.828125 78.652344 C 158.476562 78.027344 159.007812 77.363281 159.007812 77.167969 C 159.007812 76.527344 156.210938 75.640625 154.242188 75.65625 C 153.171875 75.664062 151.796875 75.945312 151.1875 76.273438 M 163.976562 76.316406 C 159.988281 78.28125 159.519531 84.496094 163.160156 87.089844 C 165.414062 88.695312 169.640625 88.601562 171.761719 86.90625 L 172.925781 85.972656 L 171.449219 84.847656 L 169.976562 83.722656 L 168.910156 84.5625 C 168.324219 85.023438 167.617188 85.398438 167.34375 85.398438 C 166.703125 85.398438 164.699219 83.835938 164.699219 83.335938 C 164.699219 83.128906 166.617188 82.960938 168.96875 82.960938 L 173.238281 82.960938 L 173.238281 81.496094 C 173.238281 79.488281 172.128906 77.320312 170.628906 76.40625 C 169.066406 75.453125 165.816406 75.410156 163.976562 76.316406 M 208.25 76.472656 L 206.453125 77.285156 L 207.566406 78.445312 L 208.675781 79.609375 L 210.222656 78.761719 C 211.699219 77.953125 211.8125 77.945312 212.835938 78.617188 C 214.503906 79.710938 214.222656 80.519531 212.179688 80.523438 C 208.070312 80.527344 205.996094 81.917969 205.996094 84.664062 C 205.996094 85.960938 206.238281 86.507812 207.167969 87.308594 C 208.203125 88.199219 208.597656 88.289062 210.613281 88.085938 C 211.867188 87.960938 214.054688 87.867188 215.476562 87.878906 L 218.066406 87.898438 L 217.886719 83.496094 C 217.691406 78.636719 217.179688 77.101562 215.472656 76.21875 C 213.863281 75.386719 210.371094 75.507812 208.25 76.472656 M 220.007812 81.738281 L 220.007812 87.839844 L 224.074219 87.839844 L 224.074219 75.640625 L 220.007812 75.640625 L 220.007812 81.738281 M 226.511719 81.738281 L 226.511719 87.839844 L 230.578125 87.839844 L 230.578125 83.835938 C 230.578125 80.472656 230.699219 79.726562 231.324219 79.160156 C 232.253906 78.320312 232.785156 78.3125 233.601562 79.125 C 234.097656 79.621094 234.238281 80.675781 234.238281 83.800781 L 234.238281 87.839844 L 238.371094 87.839844 L 238.238281 82.71875 C 238.105469 77.6875 238.085938 77.585938 236.960938 76.621094 C 235.597656 75.449219 232.515625 75.265625 231.078125 76.273438 C 230.257812 76.847656 230.171875 76.847656 230.171875 76.273438 C 230.171875 75.792969 229.726562 75.640625 228.34375 75.640625 L 226.511719 75.640625 L 226.511719 81.738281 M 165.605469 79.121094 C 164.164062 80.128906 164.535156 80.519531 166.9375 80.519531 C 168.167969 80.519531 169.171875 80.347656 169.171875 80.136719 C 169.171875 79.683594 167.550781 78.488281 166.9375 78.488281 C 166.699219 78.488281 166.101562 78.773438 165.605469 79.121094 M 211.0625 83.078125 C 209.660156 83.789062 209.546875 84.875 210.8125 85.453125 C 212.183594 86.078125 213.90625 85.023438 213.90625 83.5625 C 213.90625 82.402344 212.777344 82.210938 211.0625 83.078125 "/>
</g>
</svg>
